<svg xmlns="http://www.w3.org/2000/svg" viewBox="0 0 53.5 42.6" enable-background="new 0 0 53.5 42.6"><path fill="#fff" d="M53.5 5.4c-2 .8-4.1 1.4-6.3 1.6 2.3-1.3 4-3.4 4.9-5.9-2.1 1.2-4.5 2.1-6.9 2.5C43.3 1.5 40.5.1 37.3 0c-6-.1-10.9 4.7-11 10.6 0 .8.1 1.7.2 2.5-9-.6-16.9-5.1-22.1-11.7-1 1.6-1.6 3.4-1.6 5.4-.1 3.8 1.8 7.1 4.7 9.1-1.8-.1-3.4-.6-4.9-1.4v.1c-.1 5.3 3.6 9.7 8.5 10.8-.9.2-1.9.3-2.9.3-.7 0-1.4-.1-2-.2 1.3 4.3 5.2 7.5 10 7.7-3.8 2.8-8.5 4.5-13.6 4.4-.9 0-1.7-.1-2.6-.2 4.7 3.2 10.4 5.1 16.5 5.2 20 .4 31.2-16 31.5-30.3v-1.4c2.1-1.5 4-3.4 5.5-5.5z"/></svg>