<svg version="1.2" baseProfile="tiny" xmlns="http://www.w3.org/2000/svg" width="288" height="108" viewBox="0 0 288 108"><path fill="#fff" d="M17.7 43.4c3.5-4.8 7.9-7.4 14-7.4 5.4 0 9.6 2.8 11.5 7.9 3.7-5.1 8.1-7.9 14.3-7.9 7.5 0 12.7 5.4 12.7 14.5V76l-6.1 9.4h-6.7V52.6c0-5.5-2.2-7.1-4.7-7.1-3.5 0-5.9 2.4-8.3 6.7V76l-6.1 9.4h-6.7V52.6c0-5.5-2.1-7.1-4.7-7.1-3.5 0-5.9 2.4-8.3 6.7V76l-6.1 9.3h-7V51.9s.1-1.6-.6-3.4c-.7-1.8-1.7-2.4-1.7-2.4l6.4-9.7s3.2.7 5.6 3.7c1.5 1.8 2.1 3.8 2.1 3.8l.4-.5zM123 61.6c0 15.3-8.7 25.6-23.2 25.6-14.4 0-23.2-9.6-23.2-25.6C76.7 46.2 85.4 36 100 36c14.4 0 23 9.6 23 25.6zm-32.8 0c0 11.1 3.3 16 9.7 16 6.4 0 9.7-4.9 9.7-16s-3.3-16-9.6-16c-6.5.1-9.8 5-9.8 16zM163.6 46.7l-22.7 29.1H164l-6.6 10H126v-9.3l22.7-29.1h-20.8v-9.9h35.7v9.2zM185.2 20.1c0 4.3-3.3 7.6-7.9 7.6-4.7 0-7.8-3.3-7.8-7.6s3.2-7.6 7.8-7.6 7.9 3.3 7.9 7.6zm-1.4 65.7h-12.9V37.4h12.9v48.4zM205.5 73.1c0 2.7.8 3.8 2.6 3.8.9 0 1.9-.2 2.6-.5l-7.1 10.8h-.5c-6.8-.6-10.6-5-10.6-12.9V18.2l12.9-1.5v56.4zM230.3 73.1c0 2.7.8 3.8 2.6 3.8.9 0 1.9-.2 2.6-.5l-7 10.8h-.5c-6.8-.5-10.6-5-10.6-12.9V18.2l12.9-1.5v56.4zM281 52.9v19.5c0 3.9 1.2 5.3 3.6 6.1l-5.4 8.2s-6.8-2.7-8.5-6.6c-3.5 5.2-8.8 7.2-14.5 7.2-9.7 0-15.7-6.2-15.7-15 0-10.6 7.9-16.3 22.3-16.3h5.6v-2.4c0-6-2.6-7.9-8.7-7.9-3.2 0-7.8.9-12.8 2.6l-2.9-8.7c6-2.4 12.4-3.6 17.9-3.6 13.3 0 19.1 5.9 19.1 16.9zm-17 10.4c-7 0-10.5 2.6-10.5 7.8 0 4.3 2.2 6.7 6.2 6.7 3.7 0 6.6-1.9 8.6-5.4v-9.2H264z"/></svg>