<svg width="288" height="75" viewBox="0 0 288 75" xmlns="http://www.w3.org/2000/svg">
  <title>
    mozilla wordmark
  </title>
  <g fill="none" fill-rule="evenodd">
    <g fill="#fff">
      <path d="M197.6 1.503c-5.512 1.256-6.542 1.51-6.565 1.627-.015.07.023.713.093 1.426.14 1.496.248 2.93.37 5.014.056.992.102 9.647.14 26.617.04 18.666.078 25.36.148 25.997.24 2.23.696 3.982 1.432 5.5 1.285 2.644 3.947 4.643 7.307 5.503 2.67.674 5.875.643 9.11-.078 1.053-.24 2.57-.706 2.632-.822.03-.04-.45-1.82-1.06-3.952l-1.107-3.874-.194.046c-.44.1-1.617.132-2.004.047-1.618-.35-2.36-1.457-2.655-3.96-.055-.52-.1-8.756-.148-27.585-.03-14.77-.078-27.043-.1-27.276-.024-.232-.086-1.023-.133-1.743-.077-1.247-.333-3.556-.425-3.858-.024-.07-.1-.132-.17-.124-.07.007-3.074.674-6.673 1.495zM224.776 1.503c-3.615.822-6.55 1.527-6.572 1.58-.015.047.03.605.093 1.233.147 1.403.325 3.836.44 6.067.07 1.163.11 9.237.148 26.617.04 18.132.078 25.153.147 25.687.318 2.65 1.115 4.913 2.268 6.44 2.392 3.176 6.765 4.842 11.835 4.5 2.13-.146 4.018-.502 5.72-1.083.543-.186.65-.256.635-.372-.046-.248-2.16-7.633-2.198-7.664-.023-.023-.224-.008-.45.04-.943.177-1.91.06-2.654-.334-1.037-.543-1.54-1.674-1.765-3.968-.07-.68-.108-8.066-.154-27.895-.032-14.83-.08-27.158-.102-27.39-.023-.233-.085-.915-.132-1.512-.077-1.07-.34-3.1-.425-3.332-.023-.062-.108-.116-.177-.108-.07 0-3.066.674-6.657 1.495zM173.216.535c-2.833.635-5.046 2.503-6.045 5.083-.417 1.07-.556 1.93-.51 3.177.04 1.17.163 1.767.59 2.875.703 1.828 2.545 3.672 4.372 4.378 1.238.48 1.672.558 3.026.558 1.092 0 1.332-.024 1.99-.202 2.933-.783 5.116-2.968 5.875-5.89.21-.805.278-2.34.147-3.238-.17-1.2-.743-2.65-1.424-3.595-.395-.542-1.316-1.464-1.874-1.867-.62-.45-1.764-.984-2.546-1.193-.898-.248-2.686-.287-3.6-.085zM175.81 21.968l-6.363 1.015-1.34.21v49.335h13.082V21.155l-.17.008c-.102.008-2.44.372-5.21.806zM264.63 21.286c-3.575.2-7.29 1.077-11.106 2.62-3.228 1.3-5.674 2.478-7.795 3.74l-1.06.637.332.566c.185.3 1.44 2.424 2.794 4.702 1.355 2.278 2.46 4.153 2.47 4.16.007.01.3-.177.657-.41 2.996-2.007 6.812-3.866 9.413-4.595 1.82-.503 2.46-.588 4.412-.588 1.432 0 1.896.022 2.36.138 1.487.35 2.415 1.124 2.95 2.464.38.96.603 3.162.61 5.905v.906l-.208-.054c-.34-.094-5.503-.063-6.835.045-9.567.752-15.287 3.534-18.174 8.842-2.236 4.114-2.47 10.88-.526 15.443.705 1.635 1.533 2.867 2.795 4.122 2.414 2.41 5.82 3.836 10.293 4.31 1.37.146 4.42.123 5.643-.04 4.087-.535 6.734-1.782 9.56-4.502.658-.636.735-.682.812-.55 1.123 1.852 2.493 3.27 4.397 4.517.86.566 2.407 1.364 2.578 1.325.1-.023 7.036-7.965 6.99-8.004-.016-.008-.372-.295-.798-.643-2.19-1.752-3.228-3.394-3.63-5.71-.302-1.714-.31-2.775-.124-12.632.264-13.924.202-15.288-.75-18.054-1.587-4.588-5.82-7.533-12.137-8.44-1.64-.24-4.087-.333-5.922-.224zm5.807 29.64c-.008.185-.054 2.595-.11 5.36l-.107 5.03-.457.457c-.86.883-2.082 1.75-3.15 2.232-.968.44-1.78.627-2.872.674-1.26.045-1.903-.08-2.863-.55-2.337-1.156-3.522-3.767-3.212-7.084.17-1.83.627-3.014 1.525-3.975 1.61-1.704 4.39-2.432 9.45-2.463l1.797-.008v.325zM94.11 21.363c-.86.047-2.486.27-3.36.45-4.064.844-7.47 2.665-10.35 5.54-2.043 2.046-3.537 4.24-4.76 7.005-3.375 7.648-3.445 18.364-.178 26.074 2.407 5.657 6.672 9.834 12.067 11.786 3.537 1.286 7.957 1.682 12.113 1.085 6.17-.89 10.953-3.99 14.56-9.422.728-1.108 1.88-3.37 2.322-4.563 1.215-3.325 1.757-6.556 1.858-11.08.193-8.57-1.587-14.476-5.852-19.45-.765-.892-2.26-2.348-3.056-2.984-1.55-1.232-3.685-2.425-5.535-3.1-2.842-1.038-6.518-1.533-9.83-1.34zm3.482 9.903c2.717.643 4.505 2.565 5.418 5.827.782 2.782 1.045 5.773.983 11.05-.038 3.402-.116 4.657-.41 6.64-.704 4.797-2.307 7.687-4.853 8.75-.93.386-1.68.495-3.027.448-1.378-.045-1.935-.177-3.104-.75-1.874-.915-2.95-2.185-3.64-4.285-.494-1.535-.904-3.96-1.137-6.757-.154-1.937-.13-8.152.04-9.88.402-3.96 1.044-6.424 2.105-8.066 1.03-1.597 2.585-2.666 4.45-3.06.682-.14 2.408-.094 3.174.084zM5.836 23.06c-3.19.868-5.813 1.596-5.828 1.612-.023.015.054.21.162.418 1 1.97 1.432 4.386 1.595 8.888.046 1.21.077 9.795.077 20.325v18.225l6.41-.015 6.4-.024.024-18.295.015-18.295.683-.543c2.477-2.006 5.45-3.2 7.94-3.2 1.457 0 2.34.248 2.98.822.675.603 1.046 1.48 1.294 3.013.132.79.14 2.123.186 18.674l.04 17.822h12.383l.024-18.032.015-18.023.45-.38c2.716-2.333 5.998-3.828 8.366-3.82 2.09.007 3.136.666 3.57 2.247.348 1.263.333.612.38 19.837l.046 18.17 6.37.023 6.363.015V53.753c0-11.918-.032-19.225-.08-20.007-.24-3.69-.912-5.998-2.25-7.718-1.75-2.232-4.553-3.712-8.237-4.34-1.184-.21-3.894-.286-5.163-.154-4.28.44-7.64 2.154-11.48 5.835l-.626.595-.534-.75c-.697-.97-2.353-2.62-3.29-3.287-1.834-1.31-4.025-2.108-6.502-2.394-1.293-.147-3.67-.055-4.977.193-2.855.543-5.696 1.89-7.863 3.735-1.038.884-1.17.984-1.192.953-.016-.015-.124-.472-.233-1.015-.116-.542-.325-1.31-.45-1.704-.316-.96-.974-2.232-1.136-2.224-.078 0-2.74.72-5.93 1.588zM123.368 26.927v4.61h10.76c5.92 0 10.758.024 10.758.055 0 .038-5.28 7.407-11.727 16.396l-11.727 16.326v8.215l18.437-.015 18.438-.024 1.564-4.534 1.556-4.533-11.472-.038-11.48-.04 11.062-16 11.054-16 .007-4.52v-4.51h-37.232v4.612z"/>
    </g>
  </g>
</svg>
