<?xml version="1.0" encoding="utf-8"?>
<!-- Generator: Adobe Illustrator 18.1.0, SVG Export Plug-In . SVG Version: 6.00 Build 0)  -->
<svg version="1.2" baseProfile="tiny" id="Layer_1" xmlns="http://www.w3.org/2000/svg" xmlns:xlink="http://www.w3.org/1999/xlink"
	 x="0px" y="0px" width="288px" height="108px" viewBox="0 0 288 108" xml:space="preserve">
<g>
	<g>
		<path fill="#FFFFFF" d="M17.7,43.4c3.5-4.8,7.9-7.4,14-7.4c5.4,0,9.6,2.8,11.5,7.9c3.7-5.1,8.1-7.9,14.3-7.9
			c7.5,0,12.7,5.4,12.7,14.5V76l-6.1,9.4h-6.7V52.6c0-5.5-2.2-7.1-4.7-7.1c-3.5,0-5.9,2.4-8.3,6.7V76l-6.1,9.4h-6.7V52.6
			c0-5.5-2.1-7.1-4.7-7.1c-3.5,0-5.9,2.4-8.3,6.7v23.8l-6.1,9.3H5.5V51.9c0,0,0.1-1.6-0.6-3.4c-0.7-1.8-1.7-2.4-1.7-2.4l6.4-9.7
			c0,0,3.2,0.7,5.6,3.7c1.5,1.8,2.1,3.8,2.1,3.8L17.7,43.4z"/>
	</g>
	<path fill="#FFFFFF" d="M123,61.6c0,15.3-8.7,25.6-23.2,25.6c-14.4,0-23.2-9.6-23.2-25.6C76.7,46.2,85.4,36,100,36
		C114.4,36,123,45.6,123,61.6z M90.2,61.6c0,11.1,3.3,16,9.7,16c6.4,0,9.7-4.9,9.7-16c0-11.1-3.3-16-9.6-16
		C93.5,45.7,90.2,50.6,90.2,61.6z"/>
	<path fill="#FFFFFF" d="M163.6,46.7l-22.7,29.1H164l-6.6,10H126v-9.3l22.7-29.1h-20.8v-9.9h35.7V46.7z"/>
	<path fill="#FFFFFF" d="M185.2,20.1c0,4.3-3.3,7.6-7.9,7.6c-4.7,0-7.8-3.3-7.8-7.6c0-4.3,3.2-7.6,7.8-7.6
		C181.9,12.5,185.2,15.8,185.2,20.1z M183.8,85.8h-12.9V37.4h12.9V85.8z"/>
	<path fill="#FFFFFF" d="M205.5,73.1c0,2.7,0.8,3.8,2.6,3.8c0.9,0,1.9-0.2,2.6-0.5l-7.1,10.8c0,0-0.3,0-0.5,0
		c-6.8-0.6-10.6-5-10.6-12.9V18.2l12.9-1.5V73.1z"/>
	<path fill="#FFFFFF" d="M230.3,73.1c0,2.7,0.8,3.8,2.6,3.8c0.9,0,1.9-0.2,2.6-0.5l-7,10.8c0,0-0.3,0-0.5,0
		c-6.8-0.5-10.6-5-10.6-12.9V18.2l12.9-1.5V73.1z"/>
	<path fill="#FFFFFF" d="M281,52.9v19.5c0,3.9,1.2,5.3,3.6,6.1l-5.4,8.2c0,0-6.8-2.7-8.5-6.6c-3.5,5.2-8.8,7.2-14.5,7.2
		c-9.7,0-15.7-6.2-15.7-15c0-10.6,7.9-16.3,22.3-16.3h5.6v-2.4c0-6-2.6-7.9-8.7-7.9c-3.2,0-7.8,0.9-12.8,2.6l-2.9-8.7
		c6-2.4,12.4-3.6,17.9-3.6C275.2,36,281,41.9,281,52.9z M264,63.3c-7,0-10.5,2.6-10.5,7.8c0,4.3,2.2,6.7,6.2,6.7
		c3.7,0,6.6-1.9,8.6-5.4v-9.2H264z"/>
</g>
</svg>
