<svg xmlns="http://www.w3.org/2000/svg" xmlns:xlink="http://www.w3.org/1999/xlink" version="1.1" id="Layer_1" width="205px" height="40px" x="0px" y="0px" viewBox="203 41 205 40" enable-background="new 203 0 205 400.8" xml:space="preserve">
  <g xmlns="http://www.w3.org/2000/svg" id="only_logo">
    <path fill="#FFFFFF" d="M236 41.2L236 41.2L236 41.2L236 41.2L236 41.2l-11 4.4L214 41.2l0 0l0 0l0 0l0 0l-11 4.4V80l11-4.2L225 80 l0 0l0 0l0 0l0 0l10.9-4.2l11 4.2V45.6L236 41.2z M240.2 61.2c-0.4 0.8-1.4 3.1-1 2.6c-0.4 0.5-0.7 0.6-1.7 0.4 c-0.8 0.6-1.2 0.8-2.1 1.3c-1 0.2-3.1-0.5-4-0.7c-1.8-0.3-1.9 0.1-3.5 0.9c-2.3 1.1-1.8 4-2.7 5.6l0 0l0 0c0.1 0.2 0.1 0.4 0.2 0.5 l0 0l0 0c0 0.2 0.1 0.3 0.1 0.5c-2.6 0.3-5.2-0.1-7.6-1.2c-1.8-0.9-3.4-2.2-4.7-3.8c0.3-0.2 0.6-0.3 0.9-0.5l0 0 c0.2-0.1 0.4-0.2 0.5-0.3h-0.3c-0.6-0.1-0.2-0.1-0.7-0.1c0.5-0.6 1.3-1.2 1.4-1.2l0.1-0.1c-0.7 0.2-1.7 0.5-2.2 1 c0.2-0.9 0.9-1.5 1.2-2.3c-0.8 0.4-1.6 1-2.3 1.6c0-0.8 0.9-1.5 1.3-2.1c0.3-0.5 0.7-0.8 0.9-1.2c-0.9 0.3-2.8 1.3-3.5 1.8 c0.4-1.2 1.9-2.9 2.8-3.8c-0.8 0.1-2.7 1.2-3.4 1.6c0-0.1 0-0.1 0-0.2c0.6-0.9 2.4-2.4 3.3-3.2c-1 0.1-3 1.2-4 1.5 c0.8-1.5 3.5-3.3 4.8-4.4l-3.1 0.8c-0.4 0.1-0.9 0.4-1.3 0.3c1.6-1.7 5-4.5 7.1-5.8c0 0 3-2.1 6-1.8c1.4 0.4 2.6 0.9 4 1.2 c1.2-0.3 2.8-0.7 4 0.1c0.8 0.7 1.5 1.7 1.1 2.8c2.1 2.3 6.7 2.6 8 4.3c0.2 0.3 0.1 2.2 0.5 3.4L240.2 61.2z"/>
    <path fill="#FFFFFF" d="M352.3 52.8l-2 4h-1l-2-4v4.6h-1.6V50h2.2l1.9 4.1l1.9-4.1h2.2v7.4h-1.6L352.3 52.8L352.3 52.8z"/>
    <path fill="#FFFFFF" d="M361.7 56.4c-0.7 0.7-1.7 1.1-2.8 1.1s-2-0.4-2.8-1.1c-0.7-0.7-1.1-1.6-1.1-2.7c0-1.1 0.4-2 1.1-2.7 c0.7-0.7 1.7-1.1 2.8-1.1s2 0.4 2.8 1.1c0.7 0.7 1.1 1.6 1.1 2.7C362.9 54.8 362.5 55.7 361.7 56.4z M361.2 53.7 c0-0.7-0.2-1.2-0.6-1.7c-0.4-0.5-0.9-0.7-1.6-0.7s-1.1 0.2-1.6 0.7c-0.5 0.5-0.6 1-0.6 1.7c0 0.7 0.2 1.2 0.6 1.7 c0.4 0.5 0.9 0.7 1.6 0.7s1.1-0.2 1.6-0.7C361 54.9 361.2 54.3 361.2 53.7z"/>
    <path fill="#FFFFFF" d="M363.3 57.4v-1.1l3.9-4.8h-3.8v-1.4h6v1.1l-3.9 4.8h3.9v1.4H363.3z"/>
    <path fill="#FFFFFF" d="M370.6 50h1.6v7.4h-1.6V50z"/>
    <path fill="#FFFFFF" d="M373.8 57.4V50h1.6v5.9h3.1v1.5H373.8z"/>
    <path fill="#FFFFFF" d="M379.4 57.4V50h1.6v5.9h3.1v1.5H379.4z"/>
    <path fill="#FFFFFF" d="M390.8 57.4l-0.7-1.6H387l-0.7 1.6h-1.8l3.2-7.4h1.6l3.2 7.4H390.8z M388.6 52.2l-0.9 2.1h1.8L388.6 52.2z "/>
    <path fill="#FFFFFF" d="M351.4 60.1c0.7 0.6 1.1 1.5 1.1 2.7c0 1.2-0.3 2.1-1 2.7c-0.7 0.7-1.7 1-3.1 1h-2.5v-7.4h2.6 C349.7 59.1 350.7 59.4 351.4 60.1z M350.2 64.6c0.4-0.4 0.6-0.9 0.6-1.7c0-0.7-0.2-1.3-0.6-1.7c-0.4-0.4-1-0.6-1.9-0.6h-0.9v4.5 h1C349.2 65.1 349.8 65 350.2 64.6z"/>
    <path fill="#FFFFFF" d="M358.9 59.1v1.5h-3.7v1.5h3.3v1.4h-3.3v1.5h3.8v1.5h-5.4v-7.4C353.6 59.1 358.9 59.1 358.9 59.1z"/>
    <path fill="#FFFFFF" d="M363.1 63.9l1.9-4.7h1.8l-3 7.4h-1.4l-3-7.4h1.8L363.1 63.9z"/>
    <path fill="#FFFFFF" d="M372.7 59.1v1.5H369v1.5h3.3v1.4H369v1.5h3.8v1.5h-5.4v-7.4C367.4 59.1 372.7 59.1 372.7 59.1z"/>
    <path fill="#FFFFFF" d="M374 66.6v-7.4h1.6v5.9h3.1v1.5H374z"/>
    <path fill="#FFFFFF" d="M385.8 65.6c-0.7 0.7-1.7 1.1-2.8 1.1s-2-0.4-2.8-1.1c-0.7-0.7-1.1-1.6-1.1-2.7c0-1.1 0.4-2 1.1-2.7 c0.7-0.7 1.7-1.1 2.8-1.1s2 0.4 2.8 1.1c0.7 0.7 1.1 1.6 1.1 2.7C386.9 63.9 386.5 64.9 385.8 65.6z M385.1 62.9 c0-0.7-0.2-1.2-0.6-1.7c-0.4-0.5-0.9-0.7-1.6-0.7c-0.6 0-1.1 0.2-1.6 0.7c-0.4 0.5-0.6 1-0.6 1.7c0 0.7 0.2 1.2 0.6 1.7 s0.9 0.7 1.6 0.7c0.6 0 1.1-0.2 1.6-0.7C384.9 64.1 385.1 63.5 385.1 62.9z"/>
    <path fill="#FFFFFF" d="M393.1 59.8c0.5 0.4 0.8 1.1 0.8 2c0 0.9-0.3 1.6-0.8 2c-0.5 0.4-1.3 0.6-2.4 0.6h-1v2.1h-1.6v-7.4h2.6 C391.7 59.1 392.6 59.3 393.1 59.8z M391.9 62.8c0.2-0.2 0.3-0.5 0.3-1c0-0.5-0.1-0.7-0.4-0.9c-0.3-0.2-0.7-0.3-1.2-0.3h-0.9v2.5 h1.1C391.3 63.1 391.7 63 391.9 62.8z"/>
    <path fill="#FFFFFF" d="M400.1 59.1v1.5h-3.6v1.5h3.3v1.4h-3.3v1.5h3.8v1.5h-5.4v-7.4C394.9 59.1 400.1 59.1 400.1 59.1z"/>
    <path fill="#FFFFFF" d="M407.5 61.7c0 1.2-0.5 1.9-1.4 2.3l1.9 2.6h-2l-1.6-2.4h-1.1v2.4h-1.8v-7.4h2.8c1.1 0 2 0.2 2.5 0.6 C407.2 60.1 407.5 60.7 407.5 61.7z M405.5 62.5c0.2-0.2 0.3-0.5 0.3-0.9s-0.1-0.7-0.3-0.8c-0.2-0.1-0.6-0.2-1.1-0.2h-1.2v2.2h1.2 C404.9 62.8 405.3 62.7 405.5 62.5z"/>
    <path fill="#FFFFFF" d="M350.9 68.3h1.6v7.4h-1.6l-3.5-4.6v4.6h-1.6v-7.4h1.5l3.6 4.8V68.3L350.9 68.3z"/>
    <path fill="#FFFFFF" d="M359.4 68.3v1.5h-3.7v1.5h3.3v1.4h-3.3v1.5h3.8v1.5h-5.4v-7.4H359.4z"/>
    <path fill="#FFFFFF" d="M363.8 69.7v6h-1.6v-6h-2.1v-1.4h5.8v1.4H363.8z"/>
    <path fill="#FFFFFF" d="M369.5 72.6l1.3-4.2h1.7l1.3 4.2l1.5-4.2h1.8l-2.6 7.4h-1.2l-1.6-5.1l-1.6 5.1h-1.2l-2.6-7.4h1.8 L369.5 72.6z"/>
    <path fill="#FFFFFF" d="M383.6 74.7c-0.7 0.7-1.7 1.1-2.8 1.1s-2-0.4-2.8-1.1c-0.7-0.7-1.1-1.6-1.1-2.7c0-1.1 0.4-2 1.1-2.7 s1.7-1.1 2.8-1.1s2 0.4 2.8 1.1c0.7 0.7 1.1 1.6 1.1 2.7C384.8 73 384.4 73.9 383.6 74.7z M383.1 72c0-0.7-0.2-1.2-0.6-1.7 c-0.4-0.5-0.9-0.7-1.6-0.7c-0.6 0-1.1 0.2-1.6 0.7c-0.4 0.5-0.6 1-0.6 1.7c0 0.7 0.2 1.2 0.6 1.7s0.9 0.7 1.6 0.7 c0.6 0 1.1-0.2 1.6-0.7C382.9 73.2 383.1 72.6 383.1 72z"/>
    <path fill="#FFFFFF" d="M391.9 70.8c0 1.2-0.5 1.9-1.4 2.3l1.9 2.6h-2l-1.6-2.4h-1.1v2.4h-1.6v-7.4h2.8c1.1 0 2 0.2 2.5 0.6 C391.7 69.3 391.9 69.9 391.9 70.8z M389.9 71.6c0.2-0.2 0.3-0.5 0.3-0.9s-0.1-0.7-0.3-0.8c-0.2-0.1-0.6-0.2-1.1-0.2h-1.2v2.2h1.2 C389.4 71.9 389.7 71.8 389.9 71.6z"/>
    <path fill="#FFFFFF" d="M393.3 68.3h1.6v3l2.8-3h2l-2.9 3.3c0.3 0.4 0.7 1 1.4 2c0.7 1 1.2 1.7 1.5 2.1h-1.9l-2.2-2.9l-0.7 0.8 v2.1h-1.6V68.3L393.3 68.3z"/>
  </g>
  <g>
    <path fill="#FFFFFF" d="M278 59.3l-6.8 13.9h-3.4l-6.8-13.9v16h-5.7V49.9h7.7l6.5 14l6.6-14h7.6v25.5H278V59.3z"/>
    <path fill="#FFFFFF" d="M306.9 53.2c2.4 2.2 3.6 5.3 3.6 9.3s-1.2 7.1-3.5 9.4c-2.4 2.3-6 3.5-10.8 3.5h-8.7V49.9h9 C300.9 49.9 304.4 51 306.9 53.2z M302.6 68.4c1.4-1.3 2.1-3.2 2.1-5.7c0-2.5-0.7-4.4-2.1-5.8c-1.4-1.3-3.5-2-6.4-2H293v15.5h3.6 C299.2 70.4 301.2 69.8 302.6 68.4z"/>
    <path fill="#FFFFFF" d="M331.6 49.9h5.7v25.5h-5.7l-12.1-15.9v15.9h-5.7V49.9h5.3l12.5 16.4V49.9L331.6 49.9z"/>
  </g>
</svg>
