<?xml version="1.0" encoding="UTF-8" standalone="no"?>
<svg width="673px" height="241px" viewBox="0 0 673 241" version="1.1" xmlns="http://www.w3.org/2000/svg" xmlns:xlink="http://www.w3.org/1999/xlink" xmlns:sketch="http://www.bohemiancoding.com/sketch/ns">
    <!-- Generator: Sketch 3.2.2 (9983) - http://www.bohemiancoding.com/sketch -->
    <title>gdc15_logo</title>
    <desc>Created with Sketch.</desc>
    <defs>
        <path id="path-1" d="M0,0.523 L672.892,0.523 L672.892,240.94 L0,240.94"></path>
    </defs>
    <g id="Page-1" stroke="none" stroke-width="1" fill="none" fill-rule="evenodd" sketch:type="MSPage">
        <g id="gdc15_logo" sketch:type="MSLayerGroup">
            <g id="Group-4">
                <mask id="mask-2" sketch:name="Clip 2" fill="white">
                    <use xlink:href="#path-1"></use>
                </mask>
                <g id="Clip-2"></g>
                <path d="M213.351,115.957 L196.673,115.957 C196.616,115.957 196.58,115.951 196.523,115.951 L127.81,115.951 L130.361,132.544 L148.292,140.152 C155.669,143.353 160.429,146.574 160.429,160.062 L160.447,160.049 L160.447,193.62 C152.837,196.825 142.463,198.241 129.669,198.241 C107.887,198.241 90.249,190.045 76.768,174.025 C63.974,158.698 57.752,140.537 57.752,118.804 C57.752,97.423 63.626,80.329 75.731,67.143 C89.908,51.465 111,43.634 139.696,43.634 C160.106,43.634 180.155,48.976 200.557,59.661 L201.596,11.574 C178.423,4.085 155.254,0.523 131.748,0.523 C92.675,0.523 61.206,12.287 36.659,35.796 C12.109,58.954 0,87.812 0,122.361 C0,156.206 10.039,184.354 30.44,206.439 C51.52,229.59 80.228,241 115.838,241 C151.454,241 183.957,233.156 213.351,217.132 L213.351,131.794 C213.351,131.794 213.366,131.525 213.351,131.073 L213.351,115.957" id="Fill-1" fill="#1A1918" sketch:type="MSShapeGroup" mask="url(#mask-2)"></path>
                <path d="M658.709,178.651 C639.686,189.341 620.677,194.687 601.315,194.687 C580.227,194.687 563.284,187.559 550.495,172.948 C537.691,158.343 531.468,140.537 531.468,118.804 C531.468,97.784 537.349,80.681 548.761,67.498 C561.892,51.829 581.261,43.989 606.501,43.989 C626.898,43.989 645.576,49.337 662.859,59.661 L663.902,12.632 C648.346,4.446 628.283,0.523 604.08,0.523 C565.014,0.523 533.203,12.632 508.644,36.509 C485.48,59.309 473.732,88.164 473.732,122.727 C473.732,156.924 484.098,184.703 504.5,206.439 C525.937,229.59 554.984,241 591.979,241 C619.987,241 646.952,232.801 672.892,216.062 L658.709,178.651" id="Fill-3" fill="#1A1918" sketch:type="MSShapeGroup" mask="url(#mask-2)"></path>
            </g>
            <path d="M347.451,3.499 L232.405,3.532 L232.405,122.04 C232.405,187.513 283.896,240.55 347.451,240.55 C410.976,240.578 462.475,187.513 462.475,122.04 C462.475,56.575 410.976,3.529 347.451,3.499 M347.451,194.885 C308.382,194.885 276.731,162.282 276.731,122.037 L276.731,49.187 L347.451,49.166 C386.5,49.187 418.144,81.794 418.144,122.037 C418.144,162.282 386.5,194.904 347.451,194.885" id="Fill-5" fill="#1A1918" sketch:type="MSShapeGroup"></path>
            <path d="M325.142,153.841 L306.171,153.841 L306.171,96.931 L295.72,96.931 L295.72,80.864 L325.142,80.864 L325.142,153.841 L325.142,153.841 Z M360.39,105.252 L366.384,104.771 C381.296,103.607 392.231,115.803 392.231,130.902 C392.231,138.551 388.846,145.71 382.846,150.651 C377.041,155.291 368.812,156.746 361.556,156.746 C353.233,156.746 344.811,154.712 337.743,150.166 L340.548,132.257 C346.162,137.295 353.325,140.678 360.875,140.678 C366.876,140.678 372.487,136.319 372.487,129.938 C372.487,121.126 364.07,117.45 356.514,117.45 C351.678,117.45 346.932,118.415 342.585,120.448 L348.97,80.864 L386.911,80.864 L386.911,96.931 L361.656,96.931 L360.39,105.252 L360.39,105.252 Z" id="Fill-6" fill="#1A1918" sketch:type="MSShapeGroup"></path>
        </g>
    </g>
</svg>