<?xml version="1.0" encoding="UTF-8" standalone="no"?>
<svg width="2835px" height="388px" viewBox="0 0 2835 388" version="1.1" xmlns="http://www.w3.org/2000/svg" xmlns:xlink="http://www.w3.org/1999/xlink" xmlns:sketch="http://www.bohemiancoding.com/sketch/ns">
    <title>marketplace-logo</title>
    <defs>
        <path id="path-1" d="M0,0.048 L2321.94,0.048 L2321.94,300.94 L0,300.94"></path>
    </defs>
    <g id="Page-1" stroke="none" stroke-width="1" fill="none" fill-rule="evenodd" sketch:type="MSPage">
        <g id="marketplace_logo-wordmark_CMYK-CS4" sketch:type="MSLayerGroup" fill="#fff">
            <path d="M293.403,304.484 L271.822,304.484 L241.731,274.398 C238.646,277.627 235.229,280.334 231.572,282.47 L193.49,282.47 C189.856,280.329 186.463,277.61 183.384,274.398 L153.289,304.484 L131.702,304.484 L131.702,223.629 L162.671,192.659 C171.847,147.578 198.783,102.128 212.558,102.126 C226.324,102.128 253.268,147.578 262.44,192.659 L293.403,223.629 L293.403,304.484 L293.403,304.484 Z M212.558,347.421 C207.141,347.411 190.894,330.446 190.894,309.499 C190.894,303.691 191.64,298.181 192.981,293.25 L204.367,293.25 C203.243,296.048 202.573,299.452 202.573,303.138 C202.573,312.629 209.948,320.331 212.407,320.331 C214.859,320.34 222.235,312.629 222.235,303.138 C222.235,299.452 221.574,296.048 220.443,293.25 L232.134,293.25 C233.47,298.181 234.22,303.691 234.22,309.499 C234.22,330.446 217.978,347.421 212.558,347.421 L212.558,347.421 Z M184.462,30.838 L240.662,30.838 C248.86,30.838 255.507,37.491 255.507,45.684 C255.507,53.885 248.86,60.522 240.662,60.522 L184.462,60.522 C176.263,60.522 169.607,53.885 169.607,45.684 C169.607,37.491 176.263,30.838 184.462,30.838 L184.462,30.838 Z M425.11,87.87 L363.925,87.746 C363.925,87.746 329.56,87.746 320.566,50.249 C313.614,21.218 307.683,0.635 271.735,0.635 L240.884,0.635 L184.235,0.635 L153.378,0.635 C117.441,0.635 111.502,21.218 104.554,50.249 C95.567,87.746 61.194,87.746 61.194,87.746 L0,87.87 L7.112,220.302 L0,388 L425.11,388 L417.997,219.119 L425.11,87.87 L425.11,87.87 Z" id="Fill-12" sketch:type="MSShapeGroup"></path>
            <path d="M212.591,149.53 C207.771,149.528 199.286,163.109 194.029,179.305 C199.975,178.14 206.337,177.477 212.995,177.477 C219.323,177.477 225.396,178.071 231.085,179.123 C225.83,163.008 217.384,149.53 212.591,149.53" id="Fill-13" sketch:type="MSShapeGroup"></path>
        </g>
        <g id="firefox-marketplace_wordmark-only_CMYK-CS4" sketch:type="MSLayerGroup" transform="translate(513.000000, 80.000000)">
            <path d="M807.985,78.954 C807.602,78.619 806.951,78.445 805.992,78.445 L804.82,78.445 L804.82,82.492 L805.908,82.492 C806.501,82.492 806.914,82.467 807.218,82.388 C807.527,82.287 807.795,82.158 807.985,81.953 C808.374,81.567 808.554,81.058 808.554,80.44 C808.554,79.773 808.374,79.288 807.985,78.954 L807.985,78.954 Z M807.835,87.489 C807.401,86.722 807.038,86.08 806.681,85.595 C806.368,85.133 806,84.695 805.654,84.362 C805.529,84.236 805.399,84.136 805.295,84.081 C805.194,84.028 805.04,83.978 804.82,83.978 L804.82,89.492 L802.759,89.492 L802.759,76.751 L806.644,76.751 C807.369,76.751 807.985,76.852 808.499,77.056 C809.013,77.237 809.454,77.494 809.779,77.824 C810.131,78.157 810.372,78.545 810.547,78.979 C810.706,79.417 810.777,79.905 810.777,80.364 C810.777,81.361 810.477,82.208 809.934,82.875 C809.37,83.543 808.607,83.877 807.602,83.877 C807.728,83.927 807.894,84.052 808.027,84.236 C808.194,84.415 808.332,84.594 808.523,84.824 C808.674,85.082 808.846,85.337 809.013,85.595 C809.242,85.875 809.396,86.159 809.579,86.414 L811.474,89.492 L808.937,89.492 L807.835,87.489 L807.835,87.489 Z M814.778,79.389 C814.269,78.238 813.614,77.237 812.81,76.363 C812.016,75.517 811.061,74.849 809.922,74.34 C808.809,73.881 807.652,73.622 806.408,73.622 C805.146,73.622 803.935,73.881 802.859,74.34 C801.766,74.849 800.811,75.517 799.976,76.363 C799.146,77.237 798.524,78.238 798.04,79.389 C797.557,80.544 797.335,81.774 797.335,83.134 C797.335,84.461 797.557,85.696 798.04,86.852 C798.524,88.032 799.146,89.025 799.976,89.902 C800.811,90.749 801.766,91.441 802.859,91.953 C803.935,92.438 805.146,92.696 806.408,92.696 C807.652,92.696 808.809,92.438 809.922,91.953 C811.061,91.441 812.016,90.749 812.81,89.902 C813.614,89.025 814.269,88.032 814.778,86.852 C815.224,85.696 815.47,84.461 815.47,83.134 C815.47,81.774 815.224,80.544 814.778,79.389 L814.778,79.389 Z M816.793,87.615 C816.176,88.976 815.371,90.21 814.344,91.237 C813.322,92.263 812.153,93.055 810.769,93.639 C809.37,94.206 807.928,94.515 806.408,94.515 C804.853,94.515 803.372,94.206 802.041,93.639 C800.652,93.055 799.475,92.263 798.45,91.237 C797.414,90.21 796.609,88.976 796.037,87.615 C795.416,86.239 795.116,84.72 795.116,83.134 C795.116,81.516 795.416,80.059 796.037,78.646 C796.609,77.261 797.414,76.06 798.45,75.032 C799.475,74.006 800.652,73.214 802.041,72.621 C803.372,72.029 804.853,71.754 806.408,71.754 C807.928,71.754 809.37,72.029 810.769,72.621 C812.153,73.214 813.322,74.006 814.344,75.032 C815.371,76.06 816.176,77.261 816.793,78.646 C817.394,80.059 817.698,81.516 817.698,83.134 C817.698,84.72 817.394,86.239 816.793,87.615 L816.793,87.615 Z" id="Fill-1" fill="#fff" sketch:type="MSShapeGroup"></path>
            <path d="M110.516,43.039 L36.116,43.039 L36.116,102.075 L96.69,102.075 L96.69,131.274 L36.116,131.274 L36.116,230.788 L0,230.788 L0,13.531 L114.897,13.531 L110.516,43.039" id="Fill-2" fill="#fff" sketch:type="MSShapeGroup"></path>
            <path d="M129.335,25.454 C129.335,12.589 139.377,2.23 152.26,2.23 C164.5,2.23 174.858,12.28 174.858,25.454 C174.858,38.012 164.5,48.375 151.618,48.375 C139.073,48.375 129.335,38.012 129.335,25.454" id="Fill-3" fill="#fff" sketch:type="MSShapeGroup"></path>
            <path d="M134.354,230.788 L134.354,74.441 L169.214,68.157 L169.214,230.788 L134.354,230.788" id="Fill-4" fill="#fff" sketch:type="MSShapeGroup"></path>
            <path d="M276.602,102.075 C273.139,100.822 270.627,99.871 266.89,99.871 C252.43,99.871 240.186,110.534 237.04,123.405 L237.04,230.788 L202.514,230.788 L202.514,118.687 C202.514,98.612 200.328,85.747 196.877,76.009 L228.571,67.853 C232.338,75.058 234.537,84.182 234.537,92.976 C247.078,75.7 259.647,67.549 275.042,67.549 C280.06,67.549 283.206,68.157 287.269,70.035 L276.602,102.075" id="Fill-5" fill="#fff" sketch:type="MSShapeGroup"></path>
            <path d="M350.71,94.232 C331.253,94.232 320.594,109.587 320.594,135.349 L379.295,135.349 C379.295,109.587 367.99,94.232 350.71,94.232 L350.71,94.232 Z M320.272,160.78 L320.272,163.271 C320.272,185.262 328.437,208.486 359.534,208.486 C374.273,208.486 387.139,203.157 399.07,192.799 L412.571,213.821 C395.933,227.943 376.784,234.864 355.428,234.864 C310.543,234.864 282.288,202.516 282.288,151.682 C282.288,123.71 288.254,105.203 302.05,89.517 C314.933,74.749 330.64,68.157 350.71,68.157 C366.426,68.157 380.86,72.238 394.369,84.494 C408.178,97.052 415.082,116.509 415.082,153.556 L415.082,160.78 L320.272,160.78 L320.272,160.78 Z" id="Fill-6" fill="#fff" sketch:type="MSShapeGroup"></path>
            <path d="M513.366,31.12 C505.523,27.353 500.817,25.454 494.214,25.454 C482.295,25.454 474.76,33.632 474.76,47.757 L474.76,71.929 L516.199,71.929 L507.404,95.8 L475.069,95.8 L475.069,230.788 L440.842,230.788 L440.842,95.8 L426.104,95.8 L426.104,71.929 L441.49,71.929 C441.49,71.929 440.535,63.139 440.535,48.375 C440.535,15.43 460.631,0.048 488.882,0.048 C502.391,0.048 513.687,2.868 524.672,9.151 L513.366,31.12" id="Fill-7" fill="#fff" sketch:type="MSShapeGroup"></path>
            <path d="M549.619,149.475 C549.619,195.62 561.246,209.129 581.964,209.129 C602.385,209.129 613.679,192.491 613.679,152.605 C613.679,107.715 601.112,94.232 581.038,94.232 C559.056,94.232 549.619,110.844 549.619,149.475 L549.619,149.475 Z M651.667,151.986 C651.667,203.157 624.337,234.864 581.354,234.864 C538.334,234.864 511.326,202.516 511.326,151.682 C511.326,100.822 538.644,68.157 580.737,68.157 C625.927,68.157 651.667,101.766 651.667,151.986 L651.667,151.986 Z" id="Fill-8" fill="#fff" sketch:type="MSShapeGroup"></path>
            <path d="M755.304,230.788 C749.663,221.665 723.907,177.084 720.777,171.444 C714.82,183.393 692.193,221.973 686.239,230.788 L642.617,230.788 L701.625,144.761 L655.789,76.652 L693.144,69.109 C700.377,81.032 714.495,105.845 722.037,120.585 C726.417,110.227 742.438,78.521 747.152,71.929 L787.327,71.929 L740.553,144.143 L798.633,230.788 L755.304,230.788" id="Fill-9" fill="#fff" sketch:type="MSShapeGroup"></path>
            <path d="M883.399,14.579 L921.845,14.579 L961.894,158.115 C967.984,179.575 970.546,196.559 970.546,196.559 C970.546,196.559 973.429,178.937 978.557,160.677 L1019.88,14.579 L1058.65,14.579 L1077.55,234.363 L1051.28,234.363 L1038.46,73.209 C1037.5,59.113 1036.86,35.725 1036.86,35.725 C1036.86,35.725 1032.38,55.909 1028.21,70.327 L981.118,234.363 L958.688,234.363 L915.119,78.337 C908.068,53.669 904.222,35.404 904.222,35.404 C904.222,35.404 902.62,64.557 901.66,78.016 L889.486,234.363 L864.176,234.363 L883.399,14.579" id="Fill-10" fill="#fff" sketch:type="MSShapeGroup"></path>
            <path d="M1193.54,153.31 C1189.38,152.984 1185.53,152.666 1181.05,152.666 C1140.68,152.666 1126.26,166.442 1126.26,190.788 C1126.26,209.695 1135.55,219.945 1153.82,219.945 C1170.15,219.945 1185.21,210.013 1192.58,194.957 L1193.54,153.31 L1193.54,153.31 Z M1104.15,92.113 C1125.3,78.016 1148.05,70.648 1171.11,70.648 C1193.22,70.648 1208.6,79.301 1215.32,95.638 C1218.85,104.289 1219.17,116.462 1218.85,130.881 L1217.57,183.421 C1216.93,209.375 1218.53,216.103 1230.38,222.512 L1217.57,240.451 C1206.68,236.93 1198.67,228.277 1195.78,217.064 C1180.41,232.441 1167.91,238.531 1149.65,238.531 C1110.24,238.531 1098.39,214.501 1098.39,193.032 C1098.39,156.829 1129.46,135.688 1182.97,135.688 C1189.7,135.688 1194.18,136.003 1194.18,136.003 L1194.18,124.79 C1194.18,110.697 1193.54,104.929 1189.06,99.801 C1183.93,94.036 1177.52,91.153 1167.59,91.153 C1149.65,91.153 1126.9,100.761 1116.65,110.055 L1104.15,92.113 L1104.15,92.113 Z" id="Fill-11" fill="#fff" sketch:type="MSShapeGroup"></path>
            <path d="M1250.89,77.374 L1275.88,70.648 C1275.88,70.648 1281.97,83.144 1281.01,96.598 C1292.54,80.26 1309.52,70.006 1325.86,70.006 C1330.03,70.006 1334.51,71.608 1334.51,71.608 L1324.26,98.842 C1322.66,98.199 1319.77,97.556 1317.21,97.556 C1307.6,97.556 1297.99,101.724 1290.62,109.095 C1283.25,116.462 1281.33,121.269 1281.33,134.403 L1281.33,234.363 L1256.34,234.363 L1256.34,111.336 C1256.34,87.949 1250.89,77.374 1250.89,77.374" id="Fill-12" fill="#fff" sketch:type="MSShapeGroup"></path>
            <path d="M1433.83,74.812 L1465.23,74.812 L1402.44,144.015 L1479.65,234.363 L1446.33,234.363 L1372.96,144.015 L1433.83,74.812 L1433.83,74.812 Z M1342.85,4.966 L1367.83,0.161 C1367.83,0.161 1372,13.619 1372,37.966 L1372,234.363 L1347.01,234.363 L1347.01,37.649 C1347.01,16.823 1342.85,4.966 1342.85,4.966 L1342.85,4.966 Z" id="Fill-13" fill="#fff" sketch:type="MSShapeGroup"></path>
            <path d="M1503.25,139.851 L1576.3,139.851 C1575.98,122.549 1573.74,111.974 1568.93,104.289 C1563.48,95.638 1552.27,90.189 1540.09,90.189 C1517.35,90.189 1504.53,106.851 1503.25,139.851 L1503.25,139.851 Z M1589.43,202.003 L1599.04,218.024 C1584.95,230.838 1565.73,237.89 1545.22,237.89 C1501,237.89 1474.41,205.85 1474.41,152.984 C1474.41,126.075 1480.18,108.771 1493.64,92.755 C1506.45,77.698 1522.16,70.648 1541.38,70.648 C1558.68,70.648 1573.74,76.735 1584.63,87.949 C1598.4,102.045 1602.25,117.107 1602.89,155.228 L1602.89,158.753 L1503.25,158.753 L1503.25,162.596 C1503.25,177.656 1505.17,189.187 1510.62,197.523 C1519.59,211.297 1534.33,217.064 1550.35,217.064 C1565.73,217.064 1578.22,212.257 1589.43,202.003 L1589.43,202.003 Z" id="Fill-14" fill="#fff" sketch:type="MSShapeGroup"></path>
            <g id="Group-18">
                <mask id="mask-2" sketch:name="Clip 16" fill="white">
                    <use xlink:href="#path-1"></use>
                </mask>
                <g id="Clip-16"></g>
                <path d="M1700.28,74.812 L1692.6,93.714 L1659.28,93.714 L1659.28,196.559 C1659.28,214.181 1664.08,220.268 1679.79,220.268 C1686.83,220.268 1691,219.308 1695.48,217.064 L1699.01,233.083 C1691,237.246 1682.02,239.491 1670.81,239.491 C1662.48,239.491 1656.07,237.89 1649.99,235.002 C1638.78,229.558 1634.61,219.308 1634.61,203.288 L1634.61,93.714 L1613.79,93.714 L1613.79,74.812 L1634.61,74.812 C1634.61,59.434 1637.17,34.445 1637.17,34.445 L1663.44,28.679 C1663.44,28.679 1660.24,53.669 1660.24,74.812 L1700.28,74.812" id="Fill-15" fill="#fff" sketch:type="MSShapeGroup" mask="url(#mask-2)"></path>
                <path d="M1744.18,196.88 C1756.04,210.334 1769.81,217.706 1783.27,217.706 C1798.01,217.706 1811.46,209.695 1816.91,197.838 C1821.71,187.585 1823.64,175.411 1823.64,157.473 C1823.64,138.249 1820.75,121.269 1816.27,111.656 C1811.14,100.761 1799.61,94.036 1786.79,94.036 C1770.77,94.036 1756.35,101.724 1744.18,116.462 L1744.18,196.88 L1744.18,196.88 Z M1715.67,75.133 L1741.3,70.648 C1741.3,70.648 1742.9,77.374 1742.9,94.994 C1756.04,79.618 1772.37,71.608 1790,71.608 C1806.33,71.608 1822.35,78.658 1832.61,91.474 C1844.46,106.209 1850.23,125.755 1850.23,154.268 C1850.23,179.901 1846.38,194.635 1837.41,209.375 C1825.88,227.956 1808.9,238.531 1788.08,238.531 C1771.73,238.531 1755.39,231.481 1744.18,219.945 L1744.18,296.199 L1719.19,301 L1719.19,109.412 C1719.19,85.066 1715.67,75.133 1715.67,75.133 L1715.67,75.133 Z" id="Fill-17" fill="#fff" sketch:type="MSShapeGroup" mask="url(#mask-2)"></path>
            </g>
            <path d="M1899.14,202.328 C1899.14,214.819 1901.06,218.344 1908.11,218.344 C1909.07,218.344 1911.31,217.706 1911.31,217.706 L1916.44,234.042 C1910.03,236.93 1907.15,237.568 1900.42,237.568 C1892.73,237.568 1886.32,235.328 1881.52,230.838 C1876.39,226.355 1873.83,219.625 1873.83,208.094 L1873.83,38.93 C1873.83,18.104 1869.99,6.251 1869.99,6.251 L1894.98,1.445 C1894.98,1.445 1899.14,14.9 1899.14,39.251 L1899.14,202.328" id="Fill-19" fill="#fff" sketch:type="MSShapeGroup"></path>
            <path d="M2021.21,153.31 C2017.04,152.984 2013.2,152.666 2008.71,152.666 C1968.34,152.666 1953.92,166.442 1953.92,190.788 C1953.92,209.695 1963.22,219.945 1981.48,219.945 C1997.82,219.945 2012.87,210.013 2020.25,194.957 L2021.21,153.31 L2021.21,153.31 Z M1931.82,92.113 C1952.96,78.016 1975.71,70.648 1998.78,70.648 C2020.88,70.648 2036.26,79.301 2042.99,95.638 C2046.51,104.289 2046.84,116.462 2046.51,130.881 L2045.23,183.421 C2044.6,209.375 2046.2,216.103 2058.05,222.512 L2045.23,240.451 C2034.34,236.93 2026.33,228.277 2023.45,217.064 C2008.07,232.441 1995.58,238.531 1977.31,238.531 C1937.9,238.531 1926.05,214.501 1926.05,193.032 C1926.05,156.829 1957.13,135.688 2010.63,135.688 C2017.36,135.688 2021.85,136.003 2021.85,136.003 L2021.85,124.79 C2021.85,110.697 2021.21,104.929 2016.72,99.801 C2011.6,94.036 2005.19,91.153 1995.25,91.153 C1977.31,91.153 1954.57,100.761 1944.31,110.055 L1931.82,92.113 L1931.82,92.113 Z" id="Fill-20" fill="#fff" sketch:type="MSShapeGroup"></path>
            <path d="M2184.29,87.949 L2170.51,105.249 C2159.29,95.954 2152.25,92.433 2140.07,92.433 C2127.57,92.433 2115.72,99.484 2109.95,110.372 C2103.87,121.586 2100.98,139.209 2100.98,162.596 C2100.98,198.483 2114.76,218.024 2140.39,218.024 C2153.21,218.024 2165.38,211.937 2174.67,200.727 L2188.45,216.742 C2173.71,231.798 2159.61,237.89 2139.75,237.89 C2117,237.89 2100.02,229.879 2088.81,213.859 C2078.24,198.483 2073.43,180.86 2073.43,157.152 C2073.43,122.23 2083.68,103.005 2097.46,89.23 C2109.95,76.735 2123.73,70.648 2140.71,70.648 C2160.89,70.648 2172.75,78.337 2184.29,87.949" id="Fill-21" fill="#fff" sketch:type="MSShapeGroup"></path>
            <path d="M2222.3,139.851 L2295.35,139.851 C2295.02,122.549 2292.78,111.974 2287.98,104.289 C2282.53,95.638 2271.32,90.189 2259.14,90.189 C2236.4,90.189 2223.58,106.851 2222.3,139.851 L2222.3,139.851 Z M2308.48,202.003 L2318.09,218.024 C2304,230.838 2284.77,237.89 2264.27,237.89 C2220.05,237.89 2193.46,205.85 2193.46,152.984 C2193.46,126.075 2199.23,108.771 2212.69,92.755 C2225.5,77.698 2241.2,70.648 2260.42,70.648 C2277.73,70.648 2292.78,76.735 2303.68,87.949 C2317.45,102.045 2321.3,117.107 2321.94,155.228 L2321.94,158.753 L2222.3,158.753 L2222.3,162.596 C2222.3,177.656 2224.22,189.187 2229.67,197.523 C2238.64,211.297 2253.38,217.064 2269.4,217.064 C2284.77,217.064 2297.27,212.257 2308.48,202.003 L2308.48,202.003 Z" id="Fill-22" fill="#fff" sketch:type="MSShapeGroup"></path>
        </g>
    </g>
</svg>
