<svg width="2835" height="388" viewBox="0 0 2835 388" xmlns="http://www.w3.org/2000/svg" xmlns:xlink="http://www.w3.org/1999/xlink"><title>marketplace-logo</title><desc>Created with Sketch.</desc><defs><path id="a" d="M0 .048h2321.94V300.94H0"/></defs><g fill="none" fill-rule="evenodd"><g fill="#fff"><path d="M293.403 304.484h-21.58l-30.092-30.086c-3.084 3.23-6.5 5.936-10.158 8.072H193.49c-3.634-2.14-7.027-4.86-10.106-8.072l-30.095 30.086H131.7V223.63l30.97-30.97c9.175-45.082 36.11-90.532 49.886-90.534 13.766.002 40.71 45.452 49.882 90.533l30.963 30.97v80.854zm-80.845 42.937c-5.417-.01-21.664-16.974-21.664-37.92 0-5.81.746-11.32 2.087-16.25h11.387c-1.124 2.798-1.794 6.202-1.794 9.888 0 9.49 7.375 17.193 9.834 17.193 2.452.01 9.828-7.7 9.828-17.192 0-3.686-.66-7.09-1.792-9.888h11.69c1.337 4.93 2.087 10.44 2.087 16.25 0 20.946-16.242 37.92-21.662 37.92zM184.462 30.84h56.2c8.198 0 14.845 6.653 14.845 14.846 0 8.2-6.647 14.838-14.845 14.838h-56.2c-8.2 0-14.855-6.637-14.855-14.838 0-8.193 6.656-14.846 14.855-14.846zM425.11 87.87l-61.185-.124s-34.365 0-43.36-37.497C313.616 21.217 307.684.634 271.736.634H153.378c-35.937 0-41.876 20.583-48.824 49.614-8.987 37.496-43.36 37.496-43.36 37.496L0 87.87l7.112 132.432L0 388h425.11l-7.113-168.88 7.113-131.25z" id="Fill-12"/><path d="M212.59 149.53c-4.82-.002-13.304 13.58-18.56 29.775 5.945-1.165 12.307-1.828 18.965-1.828 6.328 0 12.4.594 18.09 1.646-5.255-16.115-13.7-29.593-18.494-29.593" id="Fill-13"/></g><g><path d="M1320.985 158.954c-.383-.335-1.034-.51-1.993-.51h-1.172v4.048h1.088c.593 0 1.006-.025 1.31-.104.31-.1.577-.23.767-.435.39-.386.57-.895.57-1.513 0-.667-.18-1.152-.57-1.486zm-.15 8.535c-.434-.768-.797-1.41-1.154-1.895-.312-.462-.68-.9-1.026-1.233-.125-.126-.255-.226-.36-.28-.1-.054-.254-.104-.474-.104v5.514h-2.06v-12.74h3.884c.725 0 1.34.1 1.855.304.513.18.954.438 1.28.768.35.333.592.72.767 1.155.16.437.23.925.23 1.384 0 .997-.3 1.844-.843 2.51-.564.67-1.327 1.003-2.332 1.003.126.05.292.175.425.36.167.178.305.357.496.587.15.258.323.513.49.77.23.28.383.565.566.82l1.894 3.078h-2.537l-1.102-2.003zm6.943-8.1c-.51-1.152-1.164-2.153-1.968-3.027-.794-.846-1.75-1.514-2.888-2.023-1.113-.46-2.27-.718-3.514-.718-1.262 0-2.473.26-3.55.718-1.092.51-2.047 1.177-2.882 2.023-.83.874-1.452 1.875-1.936 3.026-.483 1.154-.705 2.384-.705 3.744 0 1.327.222 2.562.705 3.718.484 1.18 1.106 2.173 1.936 3.05.835.847 1.79 1.54 2.883 2.05 1.075.486 2.286.744 3.548.744 1.244 0 2.4-.258 3.514-.743 1.14-.512 2.094-1.204 2.888-2.05.804-.878 1.46-1.87 1.968-3.05.446-1.157.692-2.392.692-3.72 0-1.36-.246-2.59-.692-3.744zm2.015 8.225c-.617 1.36-1.422 2.595-2.45 3.622-1.02 1.026-2.19 1.818-3.574 2.402-1.4.566-2.842.875-4.362.875-1.555 0-3.036-.31-4.367-.876-1.388-.585-2.565-1.377-3.59-2.403-1.036-1.027-1.84-2.26-2.413-3.622-.62-1.376-.92-2.895-.92-4.48 0-1.62.3-3.076.92-4.49.572-1.384 1.377-2.585 2.413-3.613 1.025-1.026 2.202-1.818 3.59-2.41 1.332-.593 2.813-.868 4.368-.868 1.52 0 2.962.275 4.36.867 1.385.594 2.554 1.386 3.576 2.412 1.027 1.028 1.832 2.23 2.45 3.614.6 1.413.904 2.87.904 4.488 0 1.586-.304 3.105-.905 4.48z" fill="#fff"/><path d="M623.516 123.04h-74.4v59.035h60.574v29.2h-60.574v99.513H513V93.53h114.897l-4.38 29.51" fill="#fff"/><path d="M642.335 105.454c0-12.865 10.042-23.224 22.925-23.224 12.24 0 22.598 10.05 22.598 23.224 0 12.558-10.358 22.92-23.24 22.92-12.545 0-22.283-10.362-22.283-22.92" fill="#fff"/><path d="M647.354 310.788V154.44l34.86-6.283v162.63h-34.86" fill="#fff"/><path d="M789.602 182.075c-3.463-1.253-5.975-2.204-9.712-2.204-14.46 0-26.704 10.664-29.85 23.535v107.383h-34.526v-112.1c0-20.076-2.186-32.94-5.637-42.68l31.694-8.155c3.768 7.205 5.967 16.33 5.967 25.123 12.54-17.276 25.11-25.427 40.505-25.427 5.018 0 8.164.607 12.227 2.485l-10.668 32.04" fill="#fff"/><path d="M863.71 174.232c-19.457 0-30.116 15.355-30.116 41.117h58.7c0-25.763-11.304-41.118-28.584-41.118zm-30.438 66.548v2.49c0 21.992 8.165 45.216 39.262 45.216 14.74 0 27.605-5.33 39.536-15.687l13.5 21.02c-16.637 14.123-35.786 21.044-57.142 21.044-44.885 0-73.14-32.348-73.14-83.182 0-27.972 5.966-46.48 19.762-62.165 12.883-14.768 28.59-21.36 48.66-21.36 15.716 0 30.15 4.08 43.66 16.337 13.808 12.558 20.712 32.015 20.712 69.062v7.224h-94.81z" fill="#fff"/><path d="M1026.366 111.12c-7.843-3.767-12.55-5.666-19.152-5.666-11.92 0-19.454 8.178-19.454 22.303v24.172h41.44l-8.796 23.87H988.07v134.988H953.84V175.8h-14.738v-23.87h15.386s-.955-8.79-.955-23.555c0-32.945 20.096-48.327 48.347-48.327 13.51 0 24.805 2.82 35.79 9.103l-11.306 21.97" fill="#fff"/><path d="M1062.62 229.475c0 46.145 11.626 59.654 32.344 59.654 20.42 0 31.715-16.64 31.715-56.525 0-44.89-12.568-58.373-32.642-58.373-21.982 0-31.42 16.612-31.42 55.243zm102.047 2.51c0 51.172-27.33 82.88-70.313 82.88-43.02 0-70.028-32.35-70.028-83.183 0-50.86 27.318-83.525 69.41-83.525 45.19 0 70.93 33.61 70.93 83.83z" fill="#fff"/><path d="M1268.304 310.788c-5.64-9.123-31.397-53.704-34.527-59.344-5.957 11.95-28.584 50.53-34.538 59.344h-43.623l59.008-86.027-45.836-68.108 37.354-7.543c7.233 11.922 21.35 36.735 28.893 51.475 4.38-10.358 20.4-42.064 25.115-48.656h40.175l-46.774 72.213 58.08 86.645h-43.33" fill="#fff"/><path d="M1396.4 94.58h38.445l40.05 143.535c6.09 21.46 8.65 38.444 8.65 38.444s2.884-17.623 8.012-35.883L1532.88 94.58h38.77l18.9 219.783h-26.27l-12.82-161.154c-.96-14.097-1.6-37.485-1.6-37.485s-4.48 20.184-8.65 34.602l-47.092 164.036h-22.43l-43.57-156.026c-7.05-24.668-10.896-42.933-10.896-42.933s-1.602 29.153-2.562 42.612l-12.174 156.347h-25.31L1396.4 94.58" fill="#fff"/><path d="M1706.54 233.31c-4.16-.326-8.01-.644-12.49-.644-40.37 0-54.79 13.776-54.79 38.122 0 18.907 9.29 29.157 27.56 29.157 16.33 0 31.39-9.932 38.76-24.988l.96-41.647zm-89.39-61.197c21.15-14.097 43.9-21.465 66.96-21.465 22.11 0 37.49 8.653 44.21 24.99 3.53 8.65 3.85 20.824 3.53 35.243l-1.28 52.54c-.64 25.955.96 32.683 12.81 39.092l-12.81 17.94c-10.89-3.522-18.9-12.175-21.79-23.388-15.37 15.377-27.87 21.467-46.13 21.467-39.41 0-51.26-24.03-51.26-45.498 0-36.203 31.07-57.344 84.58-57.344 6.73 0 11.21.315 11.21.315V204.79c0-14.093-.64-19.86-5.12-24.99-5.13-5.764-11.54-8.647-21.47-8.647-17.94 0-40.69 9.608-50.94 18.902l-12.5-17.942z" fill="#fff"/><path d="M1763.89 157.374l24.99-6.726s6.09 12.496 5.13 25.95c11.53-16.338 28.51-26.592 44.85-26.592 4.17 0 8.65 1.602 8.65 1.602l-10.25 27.234c-1.6-.643-4.49-1.286-7.05-1.286-9.61 0-19.22 4.168-26.59 11.54-7.37 7.366-9.29 12.173-9.29 25.307v99.96h-24.99V191.336c0-23.387-5.45-33.962-5.45-33.962" fill="#fff"/><path d="M1946.83 154.812h31.4l-62.79 69.203 77.21 90.348h-33.32l-73.37-90.348 60.87-69.203zm-90.98-69.846l24.98-4.805s4.17 13.46 4.17 37.806v196.397h-24.99V117.65c0-20.827-4.16-32.684-4.16-32.684z" fill="#fff"/><path d="M2016.25 219.85h73.05c-.32-17.3-2.56-27.876-7.37-35.56-5.45-8.652-16.66-14.1-28.84-14.1-22.74 0-35.56 16.66-36.84 49.66zm86.18 62.153l9.61 16.02c-14.09 12.815-33.31 19.867-53.82 19.867-44.22 0-70.81-32.04-70.81-84.906 0-26.91 5.77-44.213 19.23-60.23 12.81-15.056 28.52-22.106 47.74-22.106 17.3 0 32.36 6.087 43.25 17.3 13.77 14.097 17.62 29.16 18.26 67.28v3.525h-99.64v3.843c0 15.06 1.92 26.59 7.37 34.927 8.97 13.774 23.71 19.54 39.73 19.54 15.38 0 27.87-4.806 39.08-15.06z" fill="#fff"/><g transform="translate(513 80)"><mask id="b"><use xlink:href="#a"/></mask><path d="M1700.28 74.812l-7.68 18.902h-33.32V196.56c0 17.62 4.8 23.708 20.51 23.708 7.04 0 11.21-.96 15.69-3.204l3.53 16.02c-8.01 4.162-16.99 6.407-28.2 6.407-8.33 0-14.74-1.6-20.82-4.488-11.21-5.444-15.38-15.694-15.38-31.714V93.714h-20.82V74.812h20.82c0-15.378 2.56-40.367 2.56-40.367l26.27-5.766s-3.2 24.99-3.2 46.132h40.04" fill="#fff" mask="url(#b)"/><path d="M1744.18 196.88c11.86 13.454 25.63 20.826 39.09 20.826 14.74 0 28.19-8.01 33.64-19.868 4.8-10.253 6.73-22.427 6.73-40.365 0-19.224-2.89-36.204-7.37-45.817-5.13-10.895-16.66-17.62-29.48-17.62-16.02 0-30.44 7.688-42.61 22.426v80.418zm-28.51-121.747l25.63-4.485s1.6 6.726 1.6 24.346c13.14-15.376 29.47-23.386 47.1-23.386 16.33 0 32.35 7.05 42.61 19.866 11.85 14.735 17.62 34.28 17.62 62.794 0 25.633-3.85 40.367-12.82 55.107-11.53 18.58-28.51 29.156-49.33 29.156-16.35 0-32.69-7.05-43.9-18.585V296.2l-24.99 4.8V109.412c0-24.346-3.52-34.28-3.52-34.28z" fill="#fff" mask="url(#b)"/></g><path d="M2412.14 282.328c0 12.49 1.92 16.016 8.97 16.016.96 0 3.2-.638 3.2-.638l5.13 16.336c-6.41 2.888-9.29 3.526-16.02 3.526-7.69 0-14.1-2.24-18.9-6.73-5.13-4.483-7.69-11.213-7.69-22.744V118.93c0-20.826-3.84-32.68-3.84-32.68l24.99-4.805s4.16 13.455 4.16 37.806V282.33" fill="#fff"/><path d="M2534.21 233.31c-4.17-.326-8.01-.644-12.5-.644-40.37 0-54.79 13.776-54.79 38.122 0 18.907 9.3 29.157 27.56 29.157 16.34 0 31.39-9.932 38.77-24.988l.96-41.647zm-89.39-61.197c21.14-14.097 43.89-21.465 66.96-21.465 22.1 0 37.48 8.653 44.21 24.99 3.52 8.65 3.85 20.824 3.52 35.243l-1.28 52.54c-.63 25.955.97 32.683 12.82 39.092l-12.82 17.94c-10.89-3.522-18.9-12.175-21.78-23.388-15.38 15.377-27.87 21.467-46.14 21.467-39.41 0-51.26-24.03-51.26-45.498 0-36.203 31.08-57.344 84.58-57.344 6.73 0 11.22.315 11.22.315V204.79c0-14.093-.64-19.86-5.13-24.99-5.12-5.764-11.53-8.647-21.47-8.647-17.94 0-40.68 9.608-50.94 18.902l-12.49-17.942z" fill="#fff"/><path d="M2697.29 167.95l-13.78 17.3c-11.22-9.296-18.26-12.817-30.44-12.817-12.5 0-24.35 7.05-30.12 17.94-6.08 11.213-8.97 28.836-8.97 52.223 0 35.887 13.78 55.428 39.41 55.428 12.82 0 24.99-6.087 34.28-17.297l13.78 16.015c-14.74 15.056-28.84 21.148-48.7 21.148-22.75 0-39.73-8.01-50.94-24.03-10.57-15.377-15.38-33-15.38-56.708 0-34.922 10.25-54.147 24.03-67.922 12.49-12.495 26.27-18.582 43.25-18.582 20.18 0 32.04 7.69 43.58 17.3" fill="#fff"/><path d="M2735.3 219.85h73.05c-.33-17.3-2.57-27.876-7.37-35.56-5.45-8.652-16.66-14.1-28.84-14.1-22.74 0-35.56 16.66-36.84 49.66zm86.18 62.153l9.61 16.02c-14.09 12.815-33.32 19.867-53.82 19.867-44.22 0-70.81-32.04-70.81-84.906 0-26.91 5.77-44.213 19.23-60.23 12.81-15.056 28.51-22.106 47.73-22.106 17.31 0 32.36 6.087 43.26 17.3 13.77 14.097 17.62 29.16 18.26 67.28v3.525h-99.64v3.843c0 15.06 1.92 26.59 7.37 34.927 8.97 13.774 23.71 19.54 39.73 19.54 15.37 0 27.87-4.806 39.08-15.06z" fill="#fff"/></g></g></svg>